<?xml version="1.0" standalone="no"?><!DOCTYPE svg PUBLIC "-//W3C//DTD SVG 1.1//EN" "http://www.w3.org/Graphics/SVG/1.1/DTD/svg11.dtd"><svg t="1622982343121" class="icon" viewBox="0 0 1024 1024" version="1.1" xmlns="http://www.w3.org/2000/svg" p-id="5301" xmlns:xlink="http://www.w3.org/1999/xlink" width="200" height="200"><defs><style type="text/css"></style></defs><path d="M874.666667 896H618.666667a21.333333 21.333333 0 0 1-21.333334-21.333333V640h-170.666666v234.666667a21.333333 21.333333 0 0 1-21.333334 21.333333H149.333333a21.333333 21.333333 0 0 1-21.333333-21.333333V405.333333a21.376 21.376 0 0 1 9.024-17.429333l362.666667-256a21.354667 21.354667 0 0 1 24.618666 0l362.666667 256A21.376 21.376 0 0 1 896 405.333333v469.333334a21.333333 21.333333 0 0 1-21.333333 21.333333z m-234.666667-42.666667h213.333333V416.405333L512 175.445333 170.666667 416.405333V853.333333h213.333333V618.666667a21.333333 21.333333 0 0 1 21.333333-21.333334h213.333334a21.333333 21.333333 0 0 1 21.333333 21.333334z" fill="#8a8a8a" p-id="5302"></path></svg>