<?xml version="1.0" standalone="no"?><!DOCTYPE svg PUBLIC "-//W3C//DTD SVG 1.1//EN" "http://www.w3.org/Graphics/SVG/1.1/DTD/svg11.dtd"><svg t="1622982260406" class="icon" viewBox="0 0 1024 1024" version="1.1" xmlns="http://www.w3.org/2000/svg" p-id="4018" xmlns:xlink="http://www.w3.org/1999/xlink" width="200" height="200"><defs><style type="text/css"></style></defs><path d="M873.557333 768.341333H306.602667c-23.424 0-42.154667-17.365333-46.848-39.424L198.869333 355.114667c-1.578667-14.208 1.536-28.373333 10.922667-37.845334a46.506667 46.506667 0 0 1 35.925333-17.365333h688.768c14.08 0 26.538667 6.314667 35.925334 17.365333 9.386667 11.050667 12.501333 25.216 10.922666 37.845334l-60.928 373.76c-4.693333 23.68-23.424 39.466667-46.848 39.466666zM345.642667 673.706667h487.296l45.312-279.168H300.373333L345.6 673.706667z" p-id="4019" fill="#f89182"></path><path d="M245.717333 394.538667c-17.194667 0-34.389333-11.050667-42.197333-28.373334L137.941333 222.634667H89.514667C62.976 222.634667 42.666667 202.154667 42.666667 175.317333 42.666667 148.522667 62.976 128 89.514667 128h78.08c18.773333 0 34.389333 11.050667 42.197333 28.373333l76.501333 171.946667c10.965333 23.637333 0 52.053333-23.424 63.061333-4.693333 1.578667-10.922667 3.157333-17.152 3.157334zM380.032 940.245333c34.517333 0 62.464-28.245333 62.464-63.104 0-34.816-27.946667-63.061333-62.464-63.061333-34.517333 0-62.464 28.245333-62.464 63.061333 0 34.858667 27.946667 63.104 62.464 63.104zM781.397333 940.245333c34.56 0 62.506667-28.245333 62.506667-63.104 0-34.816-27.989333-63.061333-62.506667-63.061333-34.474667 0-62.464 28.245333-62.464 63.061333 0 34.858667 27.989333 63.104 62.464 63.104z" p-id="4020" fill="#f89182"></path></svg>