<?xml version="1.0" standalone="no"?><!DOCTYPE svg PUBLIC "-//W3C//DTD SVG 1.1//EN" "http://www.w3.org/Graphics/SVG/1.1/DTD/svg11.dtd"><svg t="1622982500151" class="icon" viewBox="0 0 1024 1024" version="1.1" xmlns="http://www.w3.org/2000/svg" p-id="8039" xmlns:xlink="http://www.w3.org/1999/xlink" width="200" height="200"><defs><style type="text/css"></style></defs><path d="M149.333333 736a42.666667 42.666667 0 1 1 0 85.333333 42.666667 42.666667 0 0 1 0-85.333333z m748.8 10.666667c4.693333 0 8.533333 3.84 8.533334 8.533333v46.933333a8.533333 8.533333 0 0 1-8.533334 8.533334H275.2a8.533333 8.533333 0 0 1-8.533333-8.533334v-46.933333c0-4.693333 3.84-8.533333 8.533333-8.533333h622.933333zM149.333333 458.666667a42.666667 42.666667 0 1 1 0 85.333333 42.666667 42.666667 0 0 1 0-85.333333z m748.8 10.666666c4.693333 0 8.533333 3.84 8.533334 8.533334v46.933333a8.533333 8.533333 0 0 1-8.533334 8.533333H275.2a8.533333 8.533333 0 0 1-8.533333-8.533333v-46.933333c0-4.693333 3.84-8.533333 8.533333-8.533334h622.933333zM149.333333 181.333333a42.666667 42.666667 0 1 1 0 85.333334 42.666667 42.666667 0 0 1 0-85.333334z m748.8 10.666667c4.693333 0 8.533333 3.84 8.533334 8.533333v46.933334a8.533333 8.533333 0 0 1-8.533334 8.533333H275.2a8.533333 8.533333 0 0 1-8.533333-8.533333V200.533333c0-4.693333 3.84-8.533333 8.533333-8.533333h622.933333z" fill="#8a8a8a" p-id="8040"></path></svg>