<?xml version="1.0" standalone="no"?><!DOCTYPE svg PUBLIC "-//W3C//DTD SVG 1.1//EN" "http://www.w3.org/Graphics/SVG/1.1/DTD/svg11.dtd"><svg t="1622982440809" class="icon" viewBox="0 0 1024 1024" version="1.1" xmlns="http://www.w3.org/2000/svg" p-id="7054" xmlns:xlink="http://www.w3.org/1999/xlink" width="200" height="200"><defs><style type="text/css"></style></defs><path d="M922.785 769.438c-22.744-48.887-55.245-92.737-96.601-130.334-41.15-37.41-89.02-66.763-142.279-87.242a474.672 474.672 0 0 0-35.227-11.978c71.987-45.776 119.756-126.24 119.756-217.869 0-142.493-115.51-258.006-258-258.006-142.489 0-258 115.513-258 258.006 0 91.629 47.769 172.093 119.756 217.868a474.854 474.854 0 0 0-35.228 11.978c-53.259 20.479-101.129 49.832-142.279 87.242-41.355 37.597-73.856 81.447-96.601 130.334-23.654 50.844-35.648 104.868-35.648 160.573 0 16.568 13.432 30 30 30s30-13.432 30-30c0-92.946 39.992-180.491 112.61-246.509 35.626-32.389 77.162-57.836 123.453-75.636 47.814-18.386 98.632-27.75 151.052-27.854 0.296 0.001 0.589 0.011 0.885 0.011s0.59-0.01 0.885-0.011c52.42 0.104 103.237 9.469 151.052 27.854 46.291 17.8 87.827 43.247 123.453 75.636 72.617 66.018 112.609 153.562 112.609 246.509 0 16.568 13.432 30 30 30s30-13.432 30-30c0.001-55.705-11.994-109.729-35.648-160.572z m-552.358-307.41c-37.398-37.398-57.993-87.122-57.993-140.012s20.596-102.614 57.993-140.012c37.398-37.398 87.12-57.994 140.007-57.994 52.888 0 102.61 20.596 140.007 57.994 37.398 37.398 57.993 87.122 57.993 140.012s-20.596 102.614-57.993 140.012c-37.118 37.119-86.378 57.674-138.824 57.98-0.395-0.001-0.788-0.007-1.183-0.007s-0.789 0.006-1.183 0.007c-52.446-0.306-101.705-20.861-138.824-57.98z" p-id="7055" fill="#8a8a8a"></path></svg>